HIERARCHY
ROOT RootJoint
{
    OFFSET   0.000000   0.000000   0.000000
    CHANNELS 6 Xposition Yposition Zposition Xrotation Yrotation Zrotation
    JOINT pelvis_lowerback
    {
        OFFSET   0.000000   0.093605   0.000000
        CHANNELS 3 Xrotation Yrotation Zrotation
        JOINT lowerback_torso
        {
            OFFSET   0.000000   0.100000   0.000000
            CHANNELS 3 Xrotation Yrotation Zrotation
            JOINT torso_head
            {
                OFFSET   0.000000   0.282350   0.000000
                CHANNELS 3 Xrotation Yrotation Zrotation
                End Site
                {
                    OFFSET   0.000000   0.192650   0.000000
                }
            }
            JOINT rTorso_Clavicle
            {
                OFFSET  -0.001000   0.157500   0.000000
                CHANNELS 3 Xrotation Yrotation Zrotation
                JOINT rShoulder
                {
                    OFFSET  -0.117647   0.000000   0.000000
                    CHANNELS 3 Xrotation Yrotation Zrotation
                    JOINT rElbow
                    {
                        OFFSET  -0.245000   0.000000   0.000000
                        CHANNELS 3 Xrotation Yrotation Zrotation
                        JOINT rWrist
                        {
                            OFFSET  -0.240000   0.000000   0.000000
                            CHANNELS 3 Xrotation Yrotation Zrotation
                            End Site
                            {
                                OFFSET  -0.116353  -0.002500   0.000000
                            }
                        }
                    }
                }
            }
            JOINT lTorso_Clavicle
            {
                OFFSET   0.001000   0.157500   0.000000
                CHANNELS 3 Xrotation Yrotation Zrotation
                JOINT lShoulder
                {
                    OFFSET   0.117647   0.000000   0.000000
                    CHANNELS 3 Xrotation Yrotation Zrotation
                    JOINT lElbow
                    {
                        OFFSET   0.245000   0.000000   0.000000
                        CHANNELS 3 Xrotation Yrotation Zrotation
                        JOINT lWrist
                        {
                            OFFSET   0.240000   0.000000   0.000000
                            CHANNELS 3 Xrotation Yrotation Zrotation
                            End Site
                            {
                                OFFSET   0.116353  -0.002500   0.000000
                            }
                        }
                    }
                }
            }
        }
    }
    JOINT rHip
    {
        OFFSET  -0.100000  -0.051395   0.000000
        CHANNELS 3 Xrotation Yrotation Zrotation
        JOINT rKnee
        {
            OFFSET   0.000000  -0.410000   0.000000
            CHANNELS 3 Xrotation Yrotation Zrotation
            JOINT rAnkle
            {
                OFFSET   0.000000  -0.390000   0.000000
                CHANNELS 3 Xrotation Yrotation Zrotation
                JOINT rToeJoint
                {
                    OFFSET   0.000000  -0.050000   0.130000
                    CHANNELS 3 Xrotation Yrotation Zrotation
                    End Site
                    {
                        OFFSET  -0.010000   0.002000   0.060000
                    }
                }
            }
        }
    }
    JOINT lHip
    {
        OFFSET   0.100000  -0.051395   0.000000
        CHANNELS 3 Xrotation Yrotation Zrotation
        JOINT lKnee
        {
            OFFSET   0.000000  -0.410000   0.000000
            CHANNELS 3 Xrotation Yrotation Zrotation
            JOINT lAnkle
            {
                OFFSET   0.000000  -0.390000   0.000000
                CHANNELS 3 Xrotation Yrotation Zrotation
                JOINT lToeJoint
                {
                    OFFSET   0.000000  -0.050000   0.130000
                    CHANNELS 3 Xrotation Yrotation Zrotation
                    End Site
                    {
                        OFFSET   0.010000   0.002000   0.060000
                    }
                }
            }
        }
    }
}
MOTION
Frames: 5
Frame Time:   0.008333
 -2.426539   0.907911   4.037913  -6.788123 -22.650586  -3.515664   3.090511  -1.206754   0.649007  -1.577615  -0.762380   0.439918  -0.363740  -1.937342   1.563722  -2.403919 -13.176984   3.803060 -15.495321  -9.736212  29.309564  -0.166538  68.290322   0.131241   2.275270   5.310236 -14.254563  -1.019807  15.325405  -0.375284 -18.314587  16.367545 -26.579527   0.009854 -38.976369   0.010222  -1.302112  -2.009678  18.686849  -0.511058  -8.835921  -1.298258  19.675663   0.004239  -0.008616 -12.160457  -5.515456   1.235332  -0.883885   0.000135   0.000035   7.871978   5.580578   6.790288  17.660759  -0.002775   0.007609 -13.487815  10.792354   0.197120  -7.374503  -0.000957   0.000080
 -2.428668   0.907897   4.037101  -6.703009 -22.146774  -3.968461   3.084273  -1.220670   0.615541  -1.651398  -0.908666   0.588146  -0.357949  -1.839797   1.618976  -2.176971 -13.357986   3.895184 -14.396011 -10.047370  30.606012  -0.174444  66.385174   0.136104   2.199282   5.477273 -14.254236  -1.459829  15.165231   0.175940 -19.669226  16.309062 -25.645163   0.011484 -38.745650   0.012174  -1.406954  -1.944631  18.855242   0.006638  -9.101116  -0.508828  18.876883   0.004403  -0.009013 -11.872364  -5.794097   1.099349  -0.864875   0.000099   0.000028   7.398288   5.437276   7.622074  18.233379  -0.002787   0.008108 -13.814224  10.436883   0.064018  -7.218519  -0.000855   0.000058
 -2.430709   0.907869   4.036301  -6.611312 -21.678601  -4.397917   3.077604  -1.221802   0.565348  -1.726315  -1.043172   0.742923  -0.362285  -1.744399   1.650871  -1.932506 -13.520894   4.046091 -13.322256 -10.336836  31.867803  -0.176697  64.555937   0.136357   2.058051   5.365614 -14.118852  -1.891067  14.990052   0.761301 -20.967622  16.207164 -24.720938   0.012435 -38.536073   0.013200  -1.522818  -1.870762  19.132390   0.502849  -9.339242   0.249397  18.088003   0.004507  -0.009140 -11.583117  -6.050954   0.982914  -0.844151   0.000067   0.000022   6.936652   5.294660   8.413635  18.777400  -0.002743   0.008293 -14.113475  10.104895  -0.061223  -7.078815  -0.000767   0.000041
 -2.432588   0.907807   4.035545  -6.521387 -21.248438  -4.802421   3.074647  -1.221403   0.517279  -1.793659  -1.169735   0.906957  -0.368962  -1.654554   1.671593  -1.692233 -13.672167   4.224040 -12.297537 -10.592516  33.074919  -0.173287  62.839446   0.132148   1.901192   5.170060 -13.919326  -2.297306  14.816396   1.346165 -22.190209  16.081264 -23.833465   0.012809 -38.345918   0.013498  -1.627401  -1.823835  19.455053   0.970017  -9.550811   0.963065  17.335297   0.004495  -0.008975 -11.302743  -6.283757   0.880378  -0.824277   0.000042   0.000018   6.501328   5.155554   9.153795  19.286256  -0.002632   0.008202 -14.397399   9.797486  -0.179215  -6.939043  -0.000690   0.000027
 -2.434279   0.907714   4.034846  -6.435890 -20.851714  -5.181744   3.075681  -1.222917   0.480091  -1.852382  -1.290289   1.078631  -0.375419  -1.570625   1.687709  -1.461786 -13.814532   4.411392 -11.327333 -10.815599  34.219576  -0.165969  61.234722   0.125047   1.745855   4.957934 -13.696280  -2.676542  14.649225   1.913278 -23.335004  15.941532 -22.992286   0.012772 -38.171518   0.013313  -1.721737  -1.797838  19.794484   1.407777  -9.738625   1.628854  16.624792   0.004370  -0.008604 -11.033642  -6.496084   0.788051  -0.806418   0.000024   0.000014   6.093998   5.020536   9.841011  19.761892  -0.002469   0.007922 -14.669075   9.511213  -0.291670  -6.797630  -0.000617   0.000015
